<svg viewBox="0 0 113.68 86.68">
<path class="stroke-mask" d="M27.4,26.66c.92-3.69,2.4-8.9,2.22-12.74a15.61,15.61,0,0,0-1.28-5.57,11.19,11.19,0,0,0-3.51-4.51A9.78,9.78,0,0,0,19.42,2,12.88,12.88,0,0,0,13.8,3.28,18.52,18.52,0,0,0,5.44,11,25.38,25.38,0,0,0,2,21.93,27,27,0,0,0,3.91,33.26c2.77,7.23,7.9,13.24,13.51,18.44a88.33,88.33,0,0,1,8.05,8,20.54,20.54,0,0,1,4.84,10,14.6,14.6,0,0,1-2.55,10.57,10.73,10.73,0,0,1-4.23,3.44,11.43,11.43,0,0,1-5.38.94A10.07,10.07,0,0,1,13,82.87a8.77,8.77,0,0,1-3.21-4.33,11.78,11.78,0,0,1-.34-5.44,16.4,16.4,0,0,1,1.9-5.22c1.83-3.25,4.81-5.68,8-7.71s6.63-3.63,9.94-5.63a63.14,63.14,0,0,0,9.34-6.74,51.38,51.38,0,0,0,7.75-8.53A39,39,0,0,0,51.67,29c.33-.9.53-1.85.8-2.78a7.48,7.48,0,0,0,.21-3A3.22,3.22,0,0,0,52,21.73a2.76,2.76,0,0,0-1.39-.91,5.06,5.06,0,0,0-3.06.26,12,12,0,0,0-4.86,3.27,19.52,19.52,0,0,0-3.2,4.86,43.56,43.56,0,0,0-3.19,11.07,57.68,57.68,0,0,0-.76,11.47A38.9,38.9,0,0,0,37.43,63.1a19.68,19.68,0,0,0,6.35,9.54A13.63,13.63,0,0,0,49,75.11a15.86,15.86,0,0,0,5.81.19,21.83,21.83,0,0,0,10.44-4.79,38.06,38.06,0,0,0,4.21-3.92c1.33-1.37,2.5-2.93,3.76-4.3a4.79,4.79,0,0,1,2.26-1.44,2.86,2.86,0,0,1,2.45.76c.7.64,1.35,1.36,2.07,2a27.18,27.18,0,0,0,2.24,1.81A24,24,0,0,0,92.8,69.8,18.91,18.91,0,0,0,104,68.09a16.74,16.74,0,0,0,7.93-8"/>
<clipPath id="signature-layer">  
<path id="signature-layer" d="M103.49,68.45a18.72,18.72,0,0,1-11.1,1.62A23.68,23.68,0,0,1,82,65.64a26.64,26.64,0,0,1-2.19-1.81c-.7-.64-1.33-1.35-2.07-2a4.21,4.21,0,0,0-1.29-.77A3,3,0,0,0,75,60.95a5.22,5.22,0,0,0-2.52,1.56c-.69.69-1.27,1.46-1.89,2.17a26.18,26.18,0,0,1-1.89,2.11,37.55,37.55,0,0,1-4.14,3.84,21.27,21.27,0,0,1-10.18,4.6,15.26,15.26,0,0,1-5.58-.2,13,13,0,0,1-5-2.38,19,19,0,0,1-6.1-9.25,38.24,38.24,0,0,1-1.8-11.16V50.31c.83-.65,1.64-1.31,2.43-2A51.37,51.37,0,0,0,46,39.78a39,39,0,0,0,5.25-10.27c.33-.9.53-1.85.8-2.78a7.48,7.48,0,0,0,.21-3,3.22,3.22,0,0,0-.64-1.49,2.76,2.76,0,0,0-1.39-.91,5.06,5.06,0,0,0-3.06.26,12,12,0,0,0-4.86,3.27,19.52,19.52,0,0,0-3.2,4.86A43.56,43.56,0,0,0,36,40.79a57.68,57.68,0,0,0-.78,8.85,62.76,62.76,0,0,1-6.72,4.61c-1.72,1-3.49,2-5.27,3q-2.76-2.89-5.77-5.52a66,66,0,0,1-7.76-8.36A39.37,39.37,0,0,1,4.05,33.6,26.39,26.39,0,0,1,2.24,22.51a25.08,25.08,0,0,1,3.21-10.8,18.1,18.1,0,0,1,8.1-7.63A12.56,12.56,0,0,1,19,2.82a9.5,9.5,0,0,1,5.28,1.69,11,11,0,0,1,3.47,4.43,15.46,15.46,0,0,1,1.33,5.5c.23,3.82-.67,7.59-1.56,11.28h0c.92-3.69,1.86-7.45,1.68-11.29a15.61,15.61,0,0,0-1.28-5.57,11.19,11.19,0,0,0-3.51-4.51A9.78,9.78,0,0,0,19,2.51a12.88,12.88,0,0,0-5.62,1.28A18.52,18.52,0,0,0,5,11.51,25.38,25.38,0,0,0,1.66,22.44a27,27,0,0,0,1.8,11.33C6.23,41,11.36,47,17,52.16q2.91,2.56,5.58,5.37c-1.38.77-2.76,1.55-4.09,2.41a32.31,32.31,0,0,0-4.61,3.51A18.32,18.32,0,0,0,10.19,68a17.33,17.33,0,0,0-2,5.51,12.66,12.66,0,0,0,.47,5.82A9.63,9.63,0,0,0,12.05,84a10.91,10.91,0,0,0,5.56,1.91,12.24,12.24,0,0,0,5.77-1,11.52,11.52,0,0,0,4.54-3.71A15.36,15.36,0,0,0,30.56,70.1a21.26,21.26,0,0,0-5-10.33c-.56-.63-1.13-1.26-1.71-1.87,1.7-.92,3.41-1.83,5.09-2.85a63.15,63.15,0,0,0,6.24-4.23v1.44a38.9,38.9,0,0,0,1.87,11.35,19.68,19.68,0,0,0,6.35,9.54,13.63,13.63,0,0,0,5.26,2.47,15.86,15.86,0,0,0,5.78.19A21.83,21.83,0,0,0,64.91,71a38,38,0,0,0,4.21-3.92c1.33-1.37,2.5-2.93,3.76-4.3a4.79,4.79,0,0,1,2.26-1.44,2.86,2.86,0,0,1,2.45.76c.7.64,1.35,1.36,2.07,2a27.09,27.09,0,0,0,2.21,1.81,24,24,0,0,0,10.52,4.38,18.91,18.91,0,0,0,11.17-1.71,16.74,16.74,0,0,0,7.93-8A16.69,16.69,0,0,1,103.49,68.45ZM25.06,60.21a20.54,20.54,0,0,1,4.84,10,14.6,14.6,0,0,1-2.52,10.57,10.73,10.73,0,0,1-4.23,3.44,11.43,11.43,0,0,1-5.38.94,10.07,10.07,0,0,1-5.11-1.78A8.77,8.77,0,0,1,9.46,79a11.78,11.78,0,0,1-.34-5.44A16.4,16.4,0,0,1,11,68.39c1.83-3.25,4.81-5.68,8-7.71,1.38-.88,2.81-1.67,4.26-2.46Q24.18,59.2,25.06,60.21Zm11.6-19.29A42.84,42.84,0,0,1,39.86,30a18.75,18.75,0,0,1,3.08-4.65,11.12,11.12,0,0,1,4.54-3A4.27,4.27,0,0,1,50,22.16a2,2,0,0,1,1.44,1.74c.27,1.71-.48,3.58-1,5.36a38.09,38.09,0,0,1-5.17,10,50.4,50.4,0,0,1-7.64,8.34c-.59.51-1.19,1-1.79,1.49A57,57,0,0,1,36.66,40.92Z"/></clipPath></svg>